<svg id="visual" viewBox="0 0 900 600" width="900" height="600" xmlns="http://www.w3.org/2000/svg" xmlns:xlink="http://www.w3.org/1999/xlink" version="1.1"><rect x="0" y="0" width="900" height="600" fill="#001220"></rect><path d="M0 148L21.5 153C43 158 86 168 128.8 174.8C171.7 181.7 214.3 185.3 257.2 178.2C300 171 343 153 385.8 138C428.7 123 471.3 111 514.2 114.5C557 118 600 137 642.8 152.5C685.7 168 728.3 180 771.2 168.5C814 157 857 122 878.5 104.5L900 87L900 601L878.5 601C857 601 814 601 771.2 601C728.3 601 685.7 601 642.8 601C600 601 557 601 514.2 601C471.3 601 428.7 601 385.8 601C343 601 300 601 257.2 601C214.3 601 171.7 601 128.8 601C86 601 43 601 21.5 601L0 601Z" fill="#69b1fa"></path><path d="M0 228L21.5 218.8C43 209.7 86 191.3 128.8 181.7C171.7 172 214.3 171 257.2 175.2C300 179.3 343 188.7 385.8 207C428.7 225.3 471.3 252.7 514.2 268.8C557 285 600 290 642.8 268.5C685.7 247 728.3 199 771.2 183C814 167 857 183 878.5 191L900 199L900 601L878.5 601C857 601 814 601 771.2 601C728.3 601 685.7 601 642.8 601C600 601 557 601 514.2 601C471.3 601 428.7 601 385.8 601C343 601 300 601 257.2 601C214.3 601 171.7 601 128.8 601C86 601 43 601 21.5 601L0 601Z" fill="#7e9ef2"></path><path d="M0 250L21.5 263.7C43 277.3 86 304.7 128.8 310.3C171.7 316 214.3 300 257.2 296.8C300 293.7 343 303.3 385.8 307.7C428.7 312 471.3 311 514.2 314.3C557 317.7 600 325.3 642.8 311.7C685.7 298 728.3 263 771.2 244.2C814 225.3 857 222.7 878.5 221.3L900 220L900 601L878.5 601C857 601 814 601 771.2 601C728.3 601 685.7 601 642.8 601C600 601 557 601 514.2 601C471.3 601 428.7 601 385.8 601C343 601 300 601 257.2 601C214.3 601 171.7 601 128.8 601C86 601 43 601 21.5 601L0 601Z" fill="#958ae3"></path><path d="M0 337L21.5 347.2C43 357.3 86 377.7 128.8 379.5C171.7 381.3 214.3 364.7 257.2 358.2C300 351.7 343 355.3 385.8 346.7C428.7 338 471.3 317 514.2 314.3C557 311.7 600 327.3 642.8 337.5C685.7 347.7 728.3 352.3 771.2 351.5C814 350.7 857 344.3 878.5 341.2L900 338L900 601L878.5 601C857 601 814 601 771.2 601C728.3 601 685.7 601 642.8 601C600 601 557 601 514.2 601C471.3 601 428.7 601 385.8 601C343 601 300 601 257.2 601C214.3 601 171.7 601 128.8 601C86 601 43 601 21.5 601L0 601Z" fill="#ab73cd"></path><path d="M0 456L21.5 441.5C43 427 86 398 128.8 383.2C171.7 368.3 214.3 367.7 257.2 378.8C300 390 343 413 385.8 427.7C428.7 442.3 471.3 448.7 514.2 442.8C557 437 600 419 642.8 410C685.7 401 728.3 401 771.2 410C814 419 857 437 878.5 446L900 455L900 601L878.5 601C857 601 814 601 771.2 601C728.3 601 685.7 601 642.8 601C600 601 557 601 514.2 601C471.3 601 428.7 601 385.8 601C343 601 300 601 257.2 601C214.3 601 171.7 601 128.8 601C86 601 43 601 21.5 601L0 601Z" fill="#bb5ab0"></path><path d="M0 427L21.5 427.8C43 428.7 86 430.3 128.8 431C171.7 431.7 214.3 431.3 257.2 429.8C300 428.3 343 425.7 385.8 436.5C428.7 447.3 471.3 471.7 514.2 472.5C557 473.3 600 450.7 642.8 440.8C685.7 431 728.3 434 771.2 444C814 454 857 471 878.5 479.5L900 488L900 601L878.5 601C857 601 814 601 771.2 601C728.3 601 685.7 601 642.8 601C600 601 557 601 514.2 601C471.3 601 428.7 601 385.8 601C343 601 300 601 257.2 601C214.3 601 171.7 601 128.8 601C86 601 43 601 21.5 601L0 601Z" fill="#c5408e"></path><path d="M0 541L21.5 534C43 527 86 513 128.8 513.2C171.7 513.3 214.3 527.7 257.2 533.8C300 540 343 538 385.8 540C428.7 542 471.3 548 514.2 546C557 544 600 534 642.8 526.8C685.7 519.7 728.3 515.3 771.2 517.3C814 519.3 857 527.7 878.5 531.8L900 536L900 601L878.5 601C857 601 814 601 771.2 601C728.3 601 685.7 601 642.8 601C600 601 557 601 514.2 601C471.3 601 428.7 601 385.8 601C343 601 300 601 257.2 601C214.3 601 171.7 601 128.8 601C86 601 43 601 21.5 601L0 601Z" fill="#c62368"></path></svg>